<?xml version="1.0" encoding="utf-8"?>
<!-- Generator: Adobe Illustrator 27.9.1, SVG Export Plug-In . SVG Version: 6.00 Build 0)  -->
<svg version="1.1" id="Capa_1" xmlns="http://www.w3.org/2000/svg" xmlns:xlink="http://www.w3.org/1999/xlink" x="0px" y="0px"
	 viewBox="0 0 110 119.3" style="enable-background:new 0 0 110 119.3;" xml:space="preserve">
<style type="text/css">
	.st0{enable-background:new    ;}
	.st1{fill:#9898B1;}
</style>
<g class="st0">
	<path class="st1" d="M81.6,105.8c0.9,1.5,1.4,3,1.4,4.4c0,1.9-0.8,3.5-2.2,4.7c-1.5,1.2-3.2,1.8-5.2,1.8c-1.5,0-2.9-0.4-4.2-1.1
		c-1.3-0.7-2.4-1.8-3.2-3.2l-7.4-12.1c-1.2-1.9-2.7-3.3-4.6-4.2c-1.9-0.9-4.3-1.4-7.3-1.4c-8.6,0-16-1.8-22.3-5.5
		c-6.3-3.7-11.1-8.9-14.6-15.8c-3.4-6.8-5.1-14.8-5.1-24c0-9.2,1.7-17.1,5.1-23.9c3.4-6.8,8.3-12,14.6-15.7
		c6.3-3.7,13.7-5.5,22.3-5.5c8.5,0,15.9,1.8,22.2,5.5c6.3,3.7,11.1,8.9,14.6,15.7c3.4,6.8,5.1,14.8,5.1,23.9c0,9.9-2,18.4-5.9,25.6
		c-4,7.1-9.6,12.3-16.9,15.6c3.8,1.3,7,4.1,9.5,8.2L81.6,105.8z M67.7,73.4c4.5-5.6,6.8-13.6,6.8-24c0-10.4-2.3-18.4-6.8-23.9
		c-4.5-5.5-10.9-8.3-18.9-8.3c-8.2,0-14.5,2.8-19.1,8.3C25.1,31,22.9,39,22.9,49.4c0,10.4,2.3,18.4,6.8,24
		c4.5,5.6,10.9,8.4,19.1,8.4C56.8,81.8,63.1,79,67.7,73.4z"/>
</g>
<path id="Rectángulo_6918" class="st1" d="M61.5,56.5h42c3.6,0,6.5,2.9,6.5,6.5l0,0c0,3.6-2.9,6.5-6.5,6.5h-42
	c-3.6,0-6.5-2.9-6.5-6.5l0,0C55,59.4,57.9,56.5,61.5,56.5z"/>
<path id="Rectángulo_6919" class="st1" d="M61.5,34.5h42c3.6,0,6.5,2.9,6.5,6.5l0,0c0,3.6-2.9,6.5-6.5,6.5h-42
	c-3.6,0-6.5-2.9-6.5-6.5l0,0C55,37.4,57.9,34.5,61.5,34.5z"/>
</svg>
