<?xml version="1.0" encoding="utf-8"?>
<!-- Generator: Adobe Illustrator 27.9.1, SVG Export Plug-In . SVG Version: 6.00 Build 0)  -->
<svg version="1.1" id="Layer_1" xmlns="http://www.w3.org/2000/svg" xmlns:xlink="http://www.w3.org/1999/xlink" x="0px" y="0px"
	 viewBox="0 0 512 512" style="enable-background:new 0 0 512 512;" xml:space="preserve">
<style type="text/css">
	.st0{fill:#1C1C24;}
</style>
<path class="st0" d="M256,0C114.8,0,0,114.8,0,256s114.8,256,256,256s256-114.8,256-256S397.2,0,256,0z M256,469.3
	c-117.6,0-213.3-95.7-213.3-213.3S138.4,42.7,256,42.7S469.3,138.4,469.3,256S373.6,469.3,256,469.3z M362.7,320
	c0,11.8-9.5,21.3-21.3,21.3H256c-49.7,0-92.1,36.9-92.5,37.3c-4.1,3.6-9.1,5.4-14.1,5.4c-5.9,0-11.7-2.4-15.9-7.2
	c-7.8-8.8-7.1-22.2,1.7-30.1c2.2-2,54.6-48.1,120.9-48.1h85.3C353.1,298.7,362.7,308.2,362.7,320z M362.7,202.7
	c0,17.7-14.3,32-32,32c-17.7,0-32-14.3-32-32s14.3-32,32-32C348.3,170.7,362.7,185,362.7,202.7z M149.3,202.7c0-17.7,14.3-32,32-32
	s32,14.3,32,32s-14.3,32-32,32S149.3,220.3,149.3,202.7z"/>
</svg>
