<?xml version="1.0" encoding="utf-8"?>
<!-- Generator: Adobe Illustrator 27.9.1, SVG Export Plug-In . SVG Version: 6.00 Build 0)  -->
<svg version="1.1" id="Layer_1" xmlns="http://www.w3.org/2000/svg" xmlns:xlink="http://www.w3.org/1999/xlink" x="0px" y="0px"
	 viewBox="0 0 512 512" style="enable-background:new 0 0 512 512;" xml:space="preserve">
<style type="text/css">
	.st0{fill:#1C1C24;}
</style>
<path class="st0" d="M426.7,0H85.3C38.3,0,0,38.3,0,85.3v256c0,47.1,38.3,85.3,85.3,85.3h62.4l80,67.3c8.1,7.3,18.4,10.9,28.5,10.8
	c10,0,19.9-3.5,27.6-10.3l82.1-67.8h60.9c47.1,0,85.3-38.3,85.3-85.3v-256C512,38.3,473.7,0,426.7,0L426.7,0z M469.3,341.3
	c0,23.5-19.1,42.7-42.7,42.7h-68.5c-4.9,0-9.8,1.7-13.6,4.9l-89,72.9L169.2,389c-3.9-3.2-8.7-5-13.8-5H85.3
	c-23.5,0-42.7-19.1-42.7-42.7v-256c0-23.5,19.1-42.7,42.7-42.7h341.3c23.5,0,42.7,19.1,42.7,42.7L469.3,341.3L469.3,341.3z M288,352
	c0,17.7-14.3,32-32,32s-32-14.3-32-32c0-17.7,14.3-32,32-32S288,334.3,288,352z M338.4,148.3c10.5,40.5-9.2,82.5-46.6,99.8
	c-5.1,2.4-14.5,13.7-14.5,24.9v4.3c0,11.8-9.5,21.3-21.3,21.3s-21.3-9.5-21.3-21.3v-4.3c0-29.5,20.2-54.8,39.2-63.6
	c15.6-7.2,29.5-26.1,23.3-50.5c-3.6-14-15.4-25.8-29.4-29.4c-13.7-3.6-27.1-0.9-37.8,7.4c-10.5,8.2-16.6,20.5-16.6,33.8
	c0,11.8-9.5,21.3-21.3,21.3c-11.8,0-21.3-9.5-21.3-21.3c0-26.6,12.1-51.2,33.1-67.5c21-16.3,48.3-21.8,74.6-14.9
	C307.4,95.7,331,119.3,338.4,148.3L338.4,148.3z"/>
</svg>
