<?xml version="1.0" encoding="utf-8"?>
<!-- Generator: Adobe Illustrator 27.9.1, SVG Export Plug-In . SVG Version: 6.00 Build 0)  -->
<svg version="1.1" id="Capa_1" xmlns="http://www.w3.org/2000/svg" xmlns:xlink="http://www.w3.org/1999/xlink" x="0px" y="0px"
	 viewBox="0 0 57 60" style="enable-background:new 0 0 57 60;" xml:space="preserve">
<style type="text/css">
	.st0{enable-background:new    ;}
	.st1{fill:#9898B1;}
</style>
<g id="Grupo_316" transform="translate(-483.894 -270.509)">
	<g class="st0">
		<path class="st1" d="M523.8,323.3c0.5,0.8,0.7,1.5,0.7,2.2c0,1-0.4,1.8-1.1,2.4c-0.8,0.6-1.6,0.9-2.6,0.9c-0.8,0-1.5-0.2-2.1-0.5
			c-0.7-0.4-1.2-0.9-1.6-1.6l-3.7-6.1c-0.6-1-1.4-1.7-2.3-2.1c-0.9-0.5-2.2-0.7-3.7-0.7c-4.3,0-8.1-0.9-11.2-2.8
			c-3.2-1.8-5.6-4.5-7.3-7.9c-1.7-3.4-2.6-7.5-2.6-12.1c0-4.6,0.9-8.6,2.6-12.1c1.7-3.4,4.2-6.1,7.3-7.9c3.2-1.8,6.9-2.8,11.2-2.8
			c4.3,0,8,0.9,11.2,2.8c3.2,1.8,5.6,4.5,7.3,7.9c1.7,3.4,2.6,7.4,2.6,12.1c0,5-1,9.3-3,12.9c-2,3.6-4.8,6.2-8.5,7.8
			c1.9,0.7,3.5,2.1,4.8,4.2L523.8,323.3z M516.8,307c2.3-2.8,3.4-6.8,3.4-12.1c0-5.2-1.1-9.3-3.4-12.1c-2.3-2.8-5.5-4.2-9.5-4.2
			c-4.1,0-7.3,1.4-9.6,4.2c-2.3,2.8-3.4,6.8-3.4,12.1c0,5.3,1.1,9.3,3.4,12.1c2.3,2.8,5.5,4.2,9.6,4.2
			C511.3,311.3,514.5,309.8,516.8,307z"/>
	</g>
	<path id="Rectángulo_6918" class="st1" d="M513.7,299.2h22c1.7,0,3,1.3,3,3l0,0c0,1.7-1.3,3-3,3h-22c-1.7,0-3-1.3-3-3l0,0
		C510.7,300.5,512,299.2,513.7,299.2z"/>
	<path id="Rectángulo_6919" class="st1" d="M514.2,287.2h21c1.9,0,3.5,1.6,3.5,3.5l0,0c0,1.9-1.6,3.5-3.5,3.5h-21
		c-1.9,0-3.5-1.6-3.5-3.5l0,0C510.7,288.7,512.3,287.2,514.2,287.2z"/>
</g>
</svg>
