<?xml version="1.0" encoding="utf-8"?>
<!-- Generator: Adobe Illustrator 27.9.1, SVG Export Plug-In . SVG Version: 6.00 Build 0)  -->
<svg version="1.1" id="Layer_1" xmlns="http://www.w3.org/2000/svg" xmlns:xlink="http://www.w3.org/1999/xlink" x="0px" y="0px"
	 viewBox="0 0 512 512" style="enable-background:new 0 0 512 512;" xml:space="preserve">
<style type="text/css">
	.st0{fill:#1C1C24;}
</style>
<g>
	<path class="st0" d="M401.3,213.3c6.6,0,12.8-3.1,16.9-8.3c4-5.2,5.4-12,3.8-18.4c-6.6-26-20.2-49.7-39.1-68.6l-74.3-74.3
		C280.4,15.5,242.9,0,203,0h-96.3C47.9,0,0,47.9,0,106.7v298.7C0,464.1,47.9,512,106.7,512h64c11.8,0,21.3-9.6,21.3-21.3
		s-9.6-21.3-21.3-21.3h-64c-35.3,0-64-28.7-64-64V106.7c0-35.3,28.7-64,64-64H203c3.5,0,6.9,0.2,10.3,0.5v106.2
		c0,35.3,28.7,64,64,64H401.3z M256,149.3V56.7c8.1,4.7,15.6,10.4,22.4,17.2l74.3,74.3c6.7,6.7,12.4,14.3,17.1,22.4h-92.5
		C265.6,170.7,256,161.1,256,149.3z M493.3,253.4c-24.2-24.2-66.3-24.2-90.5,0L259.7,396.5c-16.1,16.1-25,37.5-25,60.4v33.8
		c0,11.8,9.6,21.3,21.3,21.3h33.8c22.8,0,44.2-8.9,60.3-25l143.1-143.1c12.1-12.1,18.8-28.2,18.8-45.3
		C512,281.6,505.3,265.5,493.3,253.4L493.3,253.4z M463.1,313.7L320,456.8c-8,8.1-18.8,12.5-30.2,12.5h-12.5v-12.5
		c0-11.4,4.4-22.1,12.5-30.2l143.1-143.1c8-8.1,22.1-8.1,30.2,0c4,4,6.3,9.4,6.3,15.1C469.3,304.4,467.1,309.7,463.1,313.7z"/>
</g>
</svg>
